<svg xmlns="http://www.w3.org/2000/svg" xmlns:xlink="http://www.w3.org/1999/xlink" width="84" height="91" viewBox="0 0 84 91">
  <defs>
    <path id="paper-airplane-a" d="M34.43,0.368 L0.516,22.02 C-0.004,22.352 -0.156,23.044 0.176,23.564 C0.389,23.898 0.751,24.08 1.119,24.08 C1.326,24.08 1.534,24.023 1.721,23.905 L35.635,2.252 C36.155,1.92 36.307,1.229 35.976,0.708 C35.76,0.372 35.4,0.191 35.033,0.191 C34.826,0.191 34.617,0.248 34.43,0.368"/>
    <path id="paper-airplane-c" d="M26.766,1.029 L0.412,31.433 C0.008,31.899 0.058,32.605 0.524,33.01 C0.825,33.269 1.223,33.34 1.574,33.236 C1.774,33.177 1.956,33.064 2.103,32.897 L28.457,2.492 C28.861,2.026 28.811,1.32 28.345,0.916 C28.132,0.731 27.871,0.641 27.612,0.641 C27.298,0.641 26.986,0.773 26.766,1.029"/>
    <path id="paper-airplane-e" d="M18.411,0.275 L0.801,15.627 C0.335,16.031 0.284,16.737 0.687,17.205 C0.947,17.504 1.331,17.632 1.695,17.578 C1.9,17.55 2.097,17.463 2.265,17.318 L19.876,1.965 C20.341,1.562 20.393,0.856 19.99,0.389 C19.767,0.132 19.455,0.002 19.143,0.002 C18.883,0.002 18.622,0.092 18.411,0.275"/>
    <path id="paper-airplane-g" d="M11.846,1.553 L0.178,21.795 C-0.132,22.327 0.049,23.012 0.583,23.323 C0.926,23.521 1.331,23.517 1.656,23.35 C1.841,23.255 1.999,23.109 2.112,22.918 L13.779,2.677 C14.089,2.144 13.91,1.459 13.375,1.149 C13.197,1.045 13.003,0.996 12.813,0.996 C12.426,0.996 12.052,1.197 11.846,1.553"/>
    <path id="paper-airplane-i" d="M15.067,0.823 L0.909,38.49 C0.691,39.067 0.984,39.711 1.562,39.929 C1.691,39.977 1.824,39.999 1.955,39.999 C2.407,39.999 2.833,39.724 3,39.275 L17.158,1.609 C17.377,1.031 17.083,0.387 16.505,0.169 C16.376,0.121 16.244,0.098 16.113,0.098 C15.661,0.098 15.234,0.373 15.067,0.823"/>
  </defs>
  <g fill="none" fill-rule="evenodd" transform="translate(-21 -1)">
    <g transform="translate(22 9.946)">
      <path stroke="#00B3E3" stroke-linecap="round" stroke-linejoin="round" stroke-width="2.235" d="M.3802 23.5718C1.2372 24.0898 2.2382 24.3918 3.3132 24.3918 6.4582 24.3918 9.0082 21.8428 9.0082 18.6968 9.0082 17.5588 8.6702 16.5008 8.0952 15.6108M79.5531 51.1294C78.5331 49.1104 76.7801 47.5464 74.6421 46.7954"/>
      <polygon fill="#00BCD5" points="63.757 78.689 62.779 81.309 66.326 79.794"/>
      <polygon fill="#00BCD5" points="33.944 6.234 34.637 .683 28.434 5.268"/>
      <path fill="#7C4CFF" d="M19.5824 11.6128C19.5824 12.5118 20.3114 13.2428 21.2124 13.2428 22.1124 13.2428 22.8424 12.5118 22.8424 11.6128 22.8424 10.7128 22.1124 9.9818 21.2124 9.9818 20.3114 9.9818 19.5824 10.7128 19.5824 11.6128M25.1224 27.3091C25.1224 27.7591 25.4864 28.1241 25.9364 28.1241 26.3874 28.1241 26.7524 27.7591 26.7524 27.3091 26.7524 26.8591 26.3874 26.4951 25.9364 26.4951 25.4864 26.4951 25.1224 26.8591 25.1224 27.3091M77.098 35.8853C77.098 36.7853 77.827 37.5153 78.728 37.5153 79.628 37.5153 80.358 36.7853 80.358 35.8853 80.358 34.9853 79.628 34.2553 78.728 34.2553 77.827 34.2553 77.098 34.9853 77.098 35.8853"/>
    </g>
    <g transform="translate(0 35.946)">
      <mask id="paper-airplane-b" fill="#fff">
        <use xlink:href="#paper-airplane-a"/>
      </mask>
      <path d="M34.43,0.368 L0.516,22.02 C-0.004,22.352 -0.156,23.044 0.176,23.564 C0.389,23.898 0.751,24.08 1.119,24.08 C1.326,24.08 1.534,24.023 1.721,23.905 L35.635,2.252 C36.155,1.92 36.307,1.229 35.976,0.708 C35.76,0.372 35.4,0.191 35.033,0.191 C34.826,0.191 34.617,0.248 34.43,0.368" mask="url(#paper-airplane-b)"/>
    </g>
    <g transform="translate(42 41.946)">
      <mask id="paper-airplane-d" fill="#fff">
        <use xlink:href="#paper-airplane-c"/>
      </mask>
      <path d="M26.766,1.029 L0.412,31.433 C0.008,31.899 0.058,32.605 0.524,33.01 C0.825,33.269 1.223,33.34 1.574,33.236 C1.774,33.177 1.956,33.064 2.103,32.897 L28.457,2.492 C28.861,2.026 28.811,1.32 28.345,0.916 C28.132,0.731 27.871,0.641 27.612,0.641 C27.298,0.641 26.986,0.773 26.766,1.029" mask="url(#paper-airplane-d)"/>
    </g>
    <g transform="translate(44 29.946)">
      <mask id="paper-airplane-f" fill="#fff">
        <use xlink:href="#paper-airplane-e"/>
      </mask>
      <path d="M18.411,0.275 L0.801,15.627 C0.335,16.031 0.284,16.737 0.687,17.205 C0.947,17.504 1.331,17.632 1.695,17.578 C1.9,17.55 2.097,17.463 2.265,17.318 L19.876,1.965 C20.341,1.562 20.393,0.856 19.99,0.389 C19.767,0.132 19.455,0.002 19.143,0.002 C18.883,0.002 18.622,0.092 18.411,0.275" mask="url(#paper-airplane-f)"/>
    </g>
    <g transform="translate(68 41.946)">
      <mask id="paper-airplane-h" fill="#fff">
        <use xlink:href="#paper-airplane-g"/>
      </mask>
      <path d="M11.846,1.553 L0.178,21.795 C-0.132,22.327 0.049,23.012 0.583,23.323 C0.926,23.521 1.331,23.517 1.656,23.35 C1.841,23.255 1.999,23.109 2.112,22.918 L13.779,2.677 C14.089,2.144 13.91,1.459 13.375,1.149 C13.197,1.045 13.003,0.996 12.813,0.996 C12.426,0.996 12.052,1.197 11.846,1.553" mask="url(#paper-airplane-h)"/>
    </g>
    <path stroke="#D1E6F9" stroke-linecap="round" stroke-linejoin="round" stroke-width="2.235" d="M47.9369,29.0166 L38.4879,35.0496"/>
    <g transform="translate(69 58.946)">
      <mask id="paper-airplane-j" fill="#fff">
        <use xlink:href="#paper-airplane-i"/>
      </mask>
      <path d="M15.067,0.823 L0.909,38.49 C0.691,39.067 0.984,39.711 1.562,39.929 C1.691,39.977 1.824,39.999 1.955,39.999 C2.407,39.999 2.833,39.724 3,39.275 L17.158,1.609 C17.377,1.031 17.083,0.387 16.505,0.169 C16.376,0.121 16.244,0.098 16.113,0.098 C15.661,0.098 15.234,0.373 15.067,0.823" mask="url(#paper-airplane-j)"/>
    </g>
    <g transform="translate(50 .946)">
      <path stroke="#D1E6F9" stroke-linecap="round" stroke-linejoin="round" stroke-width="2.235" d="M40.4974,44.8853 L36.5534,55.3793"/>
      <polygon fill="#76B4EF" points=".434 24.969 54.694 .054 22.621 41.17 16.079 26.731"/>
      <polygon fill="#1B82E3" points="16.078 26.731 54.694 .054 22.622 41.17"/>
      <polygon fill="#284660" points="20.828 29.002 22.622 41.17 28.491 33.647"/>
      <polygon fill="#D1E6F9" points="54.694 .054 41.175 41.17 20.829 29.101"/>
    </g>
  </g>
</svg>
